<?xml version="1.0" encoding="utf-8"?>
<!-- Generator: Adobe Illustrator 25.4.0, SVG Export Plug-In . SVG Version: 6.00 Build 0)  -->
<svg version="1.1" id="Layer_2" xmlns="http://www.w3.org/2000/svg" xmlns:xlink="http://www.w3.org/1999/xlink" x="0px" y="0px"
	 viewBox="0 0 125 40" style="enable-background:new 0 0 125 40;" xml:space="preserve">
<style type="text/css">
	.st0{fill:none;}
	.st1{fill-rule:evenodd;clip-rule:evenodd;fill:#25D1DA;}
	.st2{opacity:0.5;}
	.st3{fill-rule:evenodd;clip-rule:evenodd;fill:#15191A;}
	.st4{fill:#FFFFFF;}
</style>
<rect class="st0" width="125" height="40"/>
<g>
	<g>
		<g id="App-icon---App-Store-1024px_00000106105038770334479370000014396508309627139773_">
			<path id="base-rounded_00000029744324083672430450000001027448649715789443_" class="st1" d="M7.1738901,3.819159h18.0140457
				c3.9632244,0,7.1738186,3.2105947,7.1738186,7.1738172v18.0140457c0,3.9632225-3.2105942,7.1738167-7.1738186,7.1738167
				H7.1738901c-3.9632227,0-7.1738176-3.2105942-7.1738176-7.1738167V10.9929762
				C0.0000725,7.0297537,3.2106674,3.819159,7.1738901,3.819159z"/>
			<g id="base-rounded-2_00000045590664969076257040000010901793437670146979_" class="st2">
				<g>
					<defs>
						<path id="SVGID_1_" d="M7.1738901,3.819159h18.0140457c3.9619904,0,7.1738186,3.2118273,7.1738186,7.1738172v18.0140457
							c0,3.9619904-3.2118282,7.1738167-7.1738186,7.1738167H7.1738901c-3.9619904,0-7.1738176-3.2118263-7.1738176-7.1738167
							V10.9929762C0.0000725,7.0309863,3.2118998,3.819159,7.1738901,3.819159z"/>
					</defs>
					<clipPath id="SVGID_00000030450465042387442010000005081157487229132699_">
						<use xlink:href="#SVGID_1_"  style="overflow:visible;"/>
					</clipPath>
				</g>
			</g>
		</g>
		<path id="music-logo_00000149356601540395611130000006740117426464133795_" class="st3" d="M20.0679455,19.2347832
			c0.1576824-0.1205788,0.2398338-0.2901859,0.2398338-0.518095c0-0.1510544-0.0477009-0.2742844-0.1457558-0.3670368
			c-0.0980549-0.0954037-0.2716351-0.1894836-0.5313435-0.2848873l-0.7963543-0.3007851
			c-0.695652-0.2597103-1.0401649-0.6983013-1.0401649-1.3210735c0-0.4081154,0.1576805-0.7393789,0.4743671-0.9898129
			c0.3166866-0.2530851,0.7301025-0.3763132,1.2415714-0.3763132c0.4081154,0,0.8029804,0.0728779,1.1912193,0.2186327
			c0.0755291,0.025176,0.1298542,0.0569773,0.1576824,0.0980539c0.0318012,0.0410757,0.0477009,0.1007032,0.0477009,0.1828566
			v0.2557344c0,0.1139536-0.0410748,0.1709318-0.1232281,0.1709318c-0.043726,0-0.1166058-0.0159016-0.2146568-0.0477028
			c-0.3312626-0.1007042-0.670475-0.1510553-1.011013-0.1510553c-0.6002483,0-0.9010353,0.2053823-0.9010353,0.6134977
			c0,0.1643066,0.0503521,0.2941608,0.1510563,0.3855896c0.1007023,0.0954037,0.2968121,0.1987572,0.5909729,0.3127117
			l0.7301006,0.2848854c0.369688,0.1457558,0.6346989,0.3166866,0.7963543,0.5154457
			c0.1616573,0.1987572,0.2438087,0.4544907,0.2438087,0.768528c0,0.4452171-0.1643066,0.8029804-0.4955692,1.06534
			s-0.7711792,0.394865-1.3210735,0.394865c-0.5498962,0-0.9951115-0.0887775-1.4151535-0.2650089
			c-0.0755272-0.0318012-0.1258793-0.0662537-0.1550293-0.1046791c-0.0278282-0.0384274-0.0410767-0.0980549-0.0410767-0.1802082
			v-0.2650089c0-0.1139545,0.0384254-0.1709309,0.1139545-0.1709309c0.043726,0,0.1232281,0.018549,0.2332077,0.0569763
			c0.413414,0.1325054,0.8400803,0.1987572,1.28265,0.1987572c0.3034344,0,0.5339947-0.0596275,0.6956501-0.1802063
			L20.0679455,19.2347832z M15.9178915,15.4040651c0-0.1258793,0.0636024-0.1894817,0.1868315-0.1894817h0.5525475
			c0.1258793,0,0.1868324,0.0636024,0.1868324,0.1894817v4.4057894c0,0.1258793-0.0636024,0.1894817-0.1868324,0.1894817H16.25313
			c-0.0636024,0-0.1099796-0.0132504-0.1457558-0.0384254c-0.0344505-0.025177-0.0569763-0.0728779-0.0689011-0.1417809
			l-0.0662537-0.3286133c-0.5816965,0.4332905-1.1792936,0.6506004-1.7888165,0.6506004
			c-0.4425659,0-0.7831049-0.1258793-1.0202875-0.3763142c-0.2371845-0.2530842-0.3577633-0.6068726-0.3577633-1.06534v-3.2967215
			c0-0.1258793,0.0636034-0.1894827,0.1868324-0.1894827h0.5525455c0.1258793,0,0.1868324,0.0636034,0.1868324,0.1894827v2.9893103
			c0,0.3378887,0.0662527,0.5883236,0.1961079,0.7486534c0.1325045,0.1616573,0.3418627,0.2398338,0.6293983,0.2398338
			c0.449192,0,0.9036837-0.1510563,1.3595009-0.4518433v-3.5272808H15.91922L15.9178915,15.4040651z M10.889328,19.9993362
			c-0.1258793,0-0.1868324-0.0636024-0.1868324-0.1894817v-3.055563c0-0.3166866-0.0596266-0.547245-0.177556-0.6983013
			c-0.1166039-0.1510553-0.3060865-0.2239332-0.5631466-0.2239332c-0.4544916,0-0.916934,0.1417799-1.3780508,0.424016
			c0.0066252,0.043726,0.0092745,0.0914288,0.0092745,0.1417789v3.4133282c0,0.1258793-0.0636024,0.1894817-0.1868324,0.1894817
			H7.8536391c-0.1258798,0-0.186832-0.0636024-0.186832-0.1894817v-3.055563c0-0.3166866-0.0596275-0.547245-0.1775565-0.6983013
			c-0.1205797-0.1510553-0.3060865-0.2239342-0.5631461-0.2239342c-0.4743681,0-0.9328351,0.1391306-1.3687763,0.4134159v3.5643826
			c0,0.1258793-0.0636024,0.1894836-0.186832,0.1894836h-0.552546c-0.1258798,0-0.186832-0.0636044-0.186832-0.1894836v-4.4057884
			c0-0.1258793,0.0636024-0.1894817,0.186832-0.1894817h0.4107652c0.0636024,0,0.1099796,0.0132494,0.1457553,0.0384264
			c0.034451,0.025176,0.0569773,0.0728779,0.0689025,0.1417799l0.0569773,0.300786
			c0.6002474-0.4134159,1.1845942-0.6227732,1.7543659-0.6227732s0.9739108,0.2239342,1.1819434,0.670475
			c0.6187983-0.4452171,1.2362719-0.670475,1.8550692-0.670475c0.4293165,0,0.7619038,0.12323,0.9924622,0.3670387
			c0.2305584,0.246459,0.3471632,0.5936222,0.3471632,1.0454636v3.3245487c0,0.1258793-0.0636024,0.1894836-0.1868324,0.1894836
			h-0.5591707L10.889328,19.9993362z M25.303215,23.5451698c0.4359417-0.1868324,0.7990055,0.2875347,0.3723392,0.6068726
			c-2.5758972,1.9093971-6.3045864,2.9270344-9.5191555,2.9270344c-4.5038433,0-8.5611439-1.6748638-11.6299572-4.4654179
			c-0.1921325-0.1735802-0.0954037-0.398838,0.0980539-0.398838c0.0503516,0,0.1073289,0.0158997,0.1669559,0.0503521
			c3.3086486,1.9398727,7.4043756,3.105917,11.6326103,3.105917c2.8541546,0,5.9892216-0.5936222,8.8778305-1.8272419
			L25.303215,23.5451698z M25.205162,16.2799225c-0.2305603,0.2689857-0.3471622,0.6916771-0.3471622,1.2799988v0.12323
			c0,0.5724201,0.1166039,0.9924622,0.3511372,1.2574711c0.2332077,0.2689857,0.6042213,0.4014893,1.109066,0.4014893
			c0.2623577,0,0.5432701-0.043726,0.8440552-0.1325035c0.068903-0.0185509,0.1166039-0.0278263,0.1391296-0.0278263
			c0.0821533,0,0.1205807,0.0636024,0.1205807,0.1894817v0.2557354c0,0.0821533-0.0132504,0.1417789-0.0384254,0.1802063
			s-0.0755291,0.0728779-0.1484051,0.1046791c-0.3060856,0.1325054-0.6638489,0.1987572-1.0679893,0.1987572
			c-0.7367268,0-1.3025246-0.2120075-1.6907616-0.6346989c-0.3922157-0.424015-0.5843487-1.040163-0.5843487-1.8457947
			c0-0.8056297,0.2027321-1.4151516,0.6042233-1.8550682c0.4041405-0.4359417,0.9739113-0.6545753,1.7093124-0.6545753
			c0.3378887,0,0.670475,0.0596275,0.9924622,0.1802073c0.068903,0.025176,0.1166058,0.0569773,0.1457577,0.0954037
			c0.0278263,0.0384264,0.0410748,0.1007042,0.0410748,0.1894817v0.2557354c0,0.1258793-0.0410748,0.1894808-0.1232281,0.1894808
			c-0.0318012,0-0.0821514-0.0092735-0.1484051-0.0278244c-0.2557335-0.0755281-0.5154438-0.1139545-0.7778034-0.1139545
			c-0.518095-0.0092754-0.8970585,0.12323-1.1276169,0.3922138L25.205162,16.2799225z M26.3897552,26.0256615
			c-0.2120075,0.1802082-0.413414,0.0821533-0.3193359-0.1510544c0.3100605-0.7804546,1.0083618-2.5281944,0.6757755-2.9548607
			c-0.3286114-0.424015-2.1770573-0.2027321-3.0052128-0.1007042c-0.2530861,0.0318031-0.2901878-0.1894798-0.0636024-0.3511372
			c0.7619038-0.536644,1.7729168-0.7168522,2.6129971-0.7168522c0.7870808,0,1.4191284,0.1576824,1.5542831,0.325964
			c0.2809105,0.3511372-0.0755291,2.7879047-1.4562302,3.9499722L26.3897552,26.0256615z M22.7233448,15.2172337
			c0.1258793,0,0.1868324,0.0636034,0.1868324,0.1894827v4.4018145c0,0.1258793-0.0636024,0.1894817-0.1868324,0.1894817h-0.5525455
			c-0.1258793,0-0.1868324-0.0636024-0.1868324-0.1894817v-4.4057894c0-0.1258793,0.0636005-0.1894827,0.1868324-0.1894827
			h0.5525455v0.0026493V15.2172337z M22.8783741,13.3899908c0.1046791,0.1046791,0.1550312,0.2398329,0.1550312,0.4107647
			s-0.0503521,0.3060865-0.1550312,0.4107656c-0.1046772,0.1046791-0.2464581,0.1550303-0.4266663,0.1550303
			c-0.1802063,0-0.3219852-0.0503511-0.4266644-0.1550303c-0.104681-0.1046791-0.1550312-0.2398338-0.1550312-0.4107656
			s0.0503521-0.3060856,0.1550312-0.4107647c0.1046772-0.1046791,0.2464581-0.1550312,0.4266644-0.1550312
			C22.631916,13.2349596,22.7776718,13.2853117,22.8783741,13.3899908z"/>
	</g>
	<g>
		<path class="st4" d="M40.3491554,16.0334644h2.2525826l3.0529175,8.6843739h-2.2287369l-0.4849663-1.5264568h-2.895237
			l-0.471714,1.5264568h-2.2287369L40.3491554,16.0334644z M42.3592567,21.3999138l-0.8957367-2.8223553l-0.8718796,2.8223553
			h1.7689438H42.3592567z"/>
		<path class="st4" d="M46.1038437,17.6924267h1.8537445l0.1934547,1.1024399
			c0.36306-0.7632275,1.0653419-1.2481956,2.0591278-1.2481956c1.0785904,0,1.7570152,0.4597931,2.0710526,1.2839737
			c0.3630638-0.7870808,1.0785904-1.2839737,2.1081543-1.2839737c1.5503082,0,2.3493156,0.9686108,2.3493156,2.6646729v4.5064926
			h-2.2048874v-3.8519173c0-0.848032-0.2186317-1.4178028-0.9937859-1.4178028s-1.0057106,0.5816975-1.0057106,1.4416542v3.8280678
			h-2.2048798v-3.8757687c0-0.7990055-0.1934586-1.3926277-0.9686127-1.3926277s-1.0414848,0.6174736-1.0414848,1.5503082v3.7180882
			H46.10252v-7.0254116H46.1038437z"/>
		<path class="st4" d="M57.4780693,23.0098495c0-0.8480301,0.3511353-1.3926258,0.9209099-1.7437649
			c0.5578423-0.3511372,1.0653419-0.4478664,2.2048798-0.6293983c1.0653419-0.1457558,1.5026054-0.2663345,1.5026054-0.714201
			c0-0.4001656-0.2424812-0.6784267-0.9937859-0.6784267s-1.1501427,0.3630638-1.1753197,1.0176392H57.696701
			c0.108654-1.6351109,1.2230225-2.7137012,3.4159775-2.7137012c2.3254585,0,3.1615677,1.06534,3.1615677,2.6885242v4.4813175
			h-1.8166389l-0.2544136-1.163393c-0.4001617,0.775156-1.1501427,1.3449249-2.4592896,1.3449249
			c-1.5264549,0-2.2645111-0.7261257-2.2645111-1.8895206H57.4780693z M62.1170654,21.895483v-0.424015
			c-0.2053795,0.1576805-0.5326653,0.2544098-0.9447594,0.3272877c-0.6055489,0.108654-0.8361053,0.1696053-1.0534172,0.3153629
			c-0.1934547,0.1457558-0.290184,0.315361-0.290184,0.5578461c0,0.4120903,0.2782593,0.6174736,0.8109283,0.6174736
			c0.883812,0,1.4774284-0.7022762,1.4774284-1.3926258L62.1170654,21.895483z"/>
		<path class="st4" d="M65.0494003,23.0708008l3.5127029-3.5617313h-3.3192444v-1.8166428h6.0316238v1.7437649l-3.3550262,3.4279022
			h3.3788757v1.8537445h-6.2502518v-1.6470356L65.0494003,23.0708008z"/>
		<path class="st4" d="M71.7607803,21.3747406v-0.2186337c0-2.3864136,1.4774323-3.6094341,3.5497971-3.6094341
			c2.0723724,0,3.5365601,1.2601223,3.5365601,3.6094341v0.2186337c0,2.3373871-1.4045486,3.5246315-3.5498047,3.5246315
			C73.019577,24.8993721,71.7607803,23.7121277,71.7607803,21.3747406z M76.6541824,21.3508892v-0.1934566
			c0-1.1501446-0.4849625-1.7437668-1.3330002-1.7437668c-0.8480301,0-1.3687744,0.5697727-1.3687744,1.7437668v0.1934566
			c0,1.0785904,0.5445938,1.6470375,1.3568497,1.6470375s1.3449249-0.5445938,1.3449249-1.6470356V21.3508892z"/>
		<path class="st4" d="M79.7309418,17.6924267h1.877594l0.2053833,1.1991692
			c0.36306-0.8241806,1.0905151-1.3449249,2.1810303-1.3449249c1.562233,0,2.3864212,1.0057125,2.3864212,2.7017746v4.4693909
			h-2.2287369v-3.8399925c0-0.8718815-0.2186356-1.4297276-1.0295639-1.4297276s-1.1501465,0.6293983-1.1501465,1.5993347v3.6703854
			h-2.240654v-7.0254116L79.7309418,17.6924267z"/>
		<path class="st4" d="M90.8997879,16.0334644h2.0101013l2.120079,3.0277386l2.120079-3.0158138h1.9862442v8.6724491h-2.120079
			v-5.2816467l-1.8775864,2.6408253h-0.2782593l-1.8418198-2.6169739v5.2564716h-2.120079v-8.6843739L90.8997879,16.0334644z"/>
		<path class="st4" d="M100.2148895,22.1618176v-4.4693909h2.2048798v3.816143c0,0.8599567,0.1934586,1.4297276,0.980545,1.4297276
			c0.7870789,0,1.0653305-0.641325,1.0653305-1.5860844v-3.6584625h2.2406616v7.0254135h-1.8656769l-0.2053757-1.1872463
			c-0.3511429,0.8109303-1.0414886,1.3197498-2.0949097,1.3197498c-1.5622253,0-2.3254547-0.9818611-2.3254547-2.6885242V22.1618176
			z"/>
		<path class="st4" d="M107.2893295,22.3685265h2.2777557c0.145752,0.5936222,0.5817032,0.8599586,1.2959061,0.8599586
			s0.9937897-0.2305603,0.9937897-0.6174736c0-0.4849682-0.7632294-0.5445957-1.6351166-0.6545753
			c-1.2110977-0.1576805-2.6408234-0.424015-2.6408234-2.094902c0-1.3687763,1.0785904-2.3254623,3.0648422-2.3254623
			c2.1081467,0,3.0529099,0.9447594,3.2702179,2.3493118h-2.167778c-0.0967255-0.4849682-0.4597855-0.7513027-1.1262894-0.7513027
			s-0.9209137,0.2544098-0.9209137,0.5936222c0,0.4359417,0.5936203,0.5088196,1.6351166,0.641325
			c1.2110977,0.1576805,2.6646729,0.4597912,2.6646729,2.094902c0,1.4045544-1.0653381,2.4341164-3.246376,2.4341164
			c-2.1810303,0-3.2344437-0.9089851-3.465004-2.5321693V22.3685265z"/>
		<path class="st4" d="M114.5943298,16.201746c0-0.8241816,0.435936-1.1024418,1.3197479-1.1024418
			s1.3197556,0.2782602,1.3197556,1.1024418c0,0.8241806-0.4240189,1.0905151-1.3197556,1.0905151
			C114.9454651,17.2922611,114.5943298,17.0259247,114.5943298,16.201746z M114.7639389,17.7401276
			c0.2544022,0.0848045,0.6293945,0.133831,1.1501389,0.133831s0.8718872-0.0609531,1.1382217-0.1457558v6.9896355h-2.2896881
			v-6.9763851L114.7639389,17.7401276z"/>
		<path class="st4" d="M117.9254913,21.3747406v-0.2186337c0-2.3864136,1.489357-3.6094341,3.5498047-3.6094341
			c2.0604553,0,3.4279022,0.9686108,3.5127106,3.1125412v0.0357761h-2.2896881v-0.0490246
			c-0.072876-0.8599586-0.4849625-1.2349472-1.2110977-1.2349472c-0.8109283,0-1.3197556,0.5697727-1.3197556,1.7437649v0.1934586
			c0,1.0785904,0.5088272,1.6470375,1.3078232,1.6470375c0.7261276,0,1.1633987-0.4001656,1.2349472-1.2839737v-0.0238495h2.2896881
			v0.0609531c-0.0848007,2.2048817-1.4893494,3.0886898-3.5365524,3.0886898c-2.2645111,0-3.5365601-1.1262932-3.5365601-3.4636803
			L117.9254913,21.3747406z"/>
	</g>
</g>
</svg>
